<?xml version="1.0" standalone="no"?>
<!DOCTYPE svg PUBLIC "-//W3C//DTD SVG 20010904//EN"
 "http://www.w3.org/TR/2001/REC-SVG-20010904/DTD/svg10.dtd">
<svg version="1.0" xmlns="http://www.w3.org/2000/svg"
 width="141.000000pt" height="38.000000pt" viewBox="0 0 141.000000 38.000000"
 preserveAspectRatio="xMidYMid meet">

<g transform="translate(0.000000,38.000000) scale(0.100000,-0.100000)"
fill="#000000" stroke="none">
<path d="M0 190 l0 -190 705 0 705 0 0 190 0 190 -705 0 -705 0 0 -190z m1400
5 l0 -165 -27 7 c-16 4 -311 78 -658 164 l-630 157 658 1 657 1 0 -165z m-700
-9 l655 -164 -667 -1 -668 -1 0 165 c0 125 3 165 13 165 6 0 307 -74 667 -164z"/>
<path d="M1048 343 c6 -2 18 -2 25 0 6 3 1 5 -13 5 -14 0 -19 -2 -12 -5z"/>
<path d="M937 283 c-9 -25 -14 -49 -11 -52 4 -3 9 0 11 7 5 14 53 17 53 2 0
-5 11 -10 25 -10 21 0 25 5 25 28 l1 27 20 -27 c30 -40 39 -35 39 22 0 28 -4
50 -10 50 -5 0 -10 -15 -10 -32 l0 -33 -20 33 c-27 45 -40 40 -41 -15 l-1 -48
-21 48 c-11 26 -26 47 -32 47 -6 0 -18 -21 -28 -47z m37 2 c3 -8 1 -15 -4 -15
-6 0 -10 7 -10 15 0 8 2 15 4 15 2 0 6 -7 10 -15z"/>
<path d="M1131 316 c-16 -19 -10 -66 10 -79 24 -15 66 -1 72 25 13 49 -51 91
-82 54z m59 -36 c0 -23 -4 -30 -20 -30 -23 0 -35 22 -26 45 3 8 15 15 26 15
16 0 20 -7 20 -30z"/>
<path d="M1234 316 c-7 -19 12 -46 32 -46 8 0 14 -5 14 -11 0 -7 -10 -9 -26
-5 -19 5 -25 3 -22 -6 7 -19 53 -21 68 -4 10 13 10 19 0 31 -7 8 -18 15 -26
15 -7 0 -16 5 -20 11 -5 9 1 10 20 5 21 -5 27 -3 24 6 -7 20 -57 22 -64 4z"/>
<path d="M110 120 c0 -51 19 -72 21 -22 l1 27 11 -28 c13 -32 29 -31 38 4 7
24 7 24 8 -3 2 -50 21 -29 21 22 0 57 -21 70 -38 23 l-10 -28 -11 28 c-18 47
-41 34 -41 -23z"/>
<path d="M230 120 l0 -50 35 0 c19 0 35 5 35 10 0 6 -11 10 -25 10 -14 0 -25
5 -25 10 0 6 9 10 19 10 11 0 23 5 26 10 4 6 -5 10 -19 10 -14 0 -26 5 -26 10
0 6 11 10 25 10 14 0 25 5 25 10 0 6 -16 10 -35 10 l-35 0 0 -50z"/>
<path d="M327 164 c-16 -16 -6 -44 18 -50 38 -9 31 -27 -7 -18 -30 6 -31 5
-19 -10 8 -10 25 -16 40 -14 35 4 38 51 4 56 -13 2 -23 8 -23 14 0 6 10 8 26
4 19 -5 25 -3 22 6 -5 14 -50 23 -61 12z"/>
<path d="M410 120 l0 -50 41 0 c24 0 38 4 34 10 -3 6 -17 10 -31 10 -13 0 -24
5 -24 10 0 6 11 10 25 10 14 0 25 5 25 10 0 6 -11 10 -25 10 -14 0 -25 5 -25
10 0 6 11 10 25 10 14 0 25 5 25 10 0 6 -16 10 -35 10 l-35 0 0 -50z"/>
<path d="M504 156 c-7 -19 12 -46 32 -46 8 0 14 -5 14 -11 0 -7 -10 -9 -26 -5
-19 5 -25 3 -22 -6 7 -19 53 -21 68 -4 10 13 10 19 0 31 -7 8 -18 15 -26 15
-7 0 -16 5 -20 11 -5 9 1 10 20 5 21 -5 27 -3 24 6 -7 20 -57 22 -64 4z"/>
</g>
</svg>
