<?xml version="1.0" encoding="utf-8"?>
<!-- Generator: Adobe Illustrator 16.0.0, SVG Export Plug-In . SVG Version: 6.00 Build 0)  -->
<!DOCTYPE svg PUBLIC "-//W3C//DTD SVG 1.1//EN" "http://www.w3.org/Graphics/SVG/1.1/DTD/svg11.dtd">
<svg version="1.1" id="Capa_1" xmlns="http://www.w3.org/2000/svg" xmlns:xlink="http://www.w3.org/1999/xlink" x="0px" y="0px"
	 width="52.375px" height="52.5px" viewBox="0 0 52.375 52.5" enable-background="new 0 0 52.375 52.5" xml:space="preserve">
<symbol  id="Deleted_Symbol" viewBox="-16.362 -13.977 32.725 27.955">
	<path fill="#FFFFFF" d="M15.753-11.487H-13.87v24.855c0,0.335-0.273,0.609-0.611,0.609h-1.27c-0.338,0-0.611-0.274-0.611-0.609
		v-25.465v-1.27v-0.002c0-0.072,0.016-0.143,0.039-0.206c0.004-0.011,0.006-0.021,0.01-0.03c0.002-0.006,0.007-0.012,0.01-0.019
		c0.096-0.208,0.307-0.354,0.553-0.354l0,0h1.27h30.234c0.334,0,0.609,0.272,0.609,0.609v1.271
		C16.362-11.76,16.087-11.487,15.753-11.487z"/>
</symbol>
<g id="Buscar">
</g>
<path fill="#723269" d="M48.788,51.449H3.587C1.605,51.449,0,49.844,0,47.861v0.934C0,50.842,1.623,52.5,3.625,52.5H48.75
	c2.002,0,3.625-1.658,3.625-3.705v-0.934C52.375,49.844,50.77,51.449,48.788,51.449z"/>
<path fill="#BC64B2" d="M48.788,0.625H3.587C1.605,0.625,0,2.23,0,4.213v43.648c0,1.982,1.605,3.588,3.587,3.588h45.201
	c1.981,0,3.587-1.605,3.587-3.588V4.213C52.375,2.23,50.77,0.625,48.788,0.625z"/>
<path fill="#94598F" d="M21.112,42.998l-9.808-4.445V27.975l-0.788,0.076L0,38.592v9.27c0,1.982,1.605,3.588,3.587,3.588H21.77
	l2.125-9.867L21.112,42.998z"/>
<path fill="#D794D3" d="M48.75,0H3.625C1.623,0,0,1.658,0,3.705v0.508C0,2.23,1.605,0.625,3.587,0.625h45.201
	c1.981,0,3.587,1.605,3.587,3.588V3.705C52.375,1.658,50.752,0,48.75,0z"/>
<polygon fill="#94598F" points="17.245,51.449 37.115,31.579 43.855,44.96 37.366,51.449 "/>
<polygon fill="#94598F" points="19.835,49.271 12.651,44.092 36.514,20.229 37.77,27.332 37.854,31.251 32.844,36.262 32.249,39.01 
	"/>
<polygon fill="#94598F" points="15.041,51.521 7.857,44.342 31.72,20.479 32.976,27.582 33.061,33.501 "/>
<polygon fill="#94598F" points="8.496,41.439 1.312,34.261 14.211,21.362 19.64,19.917 25.609,21.728 19.311,30.624 "/>
<g>
	<polygon fill="#94598F" points="40.931,12.75 38.798,10.877 35.563,7.973 15.797,29.063 22.98,36.242 23.408,35.814 21.281,33.688 
			"/>
	<polygon fill="#94598F" points="38.23,15.603 21.281,33.688 23.408,35.814 41,18.223 	"/>
</g>
<polygon fill="#94598F" points="4.563,50.559 0.003,46.002 0,34.405 11.02,23.386 17.499,28.037 25.609,29.512 "/>
<path fill="#94598F" d="M34.546,42.998"/>
<g id="Nuevo_símbolo_3">
</g>
<g opacity="0.5">
	<g>
		<path fill="#94598F" d="M39.418,25.273c0.167-0.38,0.317-0.766,0.437-1.16c0.021-0.21,0.056-0.419,0.067-0.63
			c-0.125-0.109-0.257-0.211-0.389-0.313C39.452,23.859,39.436,24.566,39.418,25.273z"/>
		<path fill="#94598F" d="M33.842,20.057c0.004-0.262-0.008-0.556,0.027-0.793l-1.832,1.91l-3.408-0.562
			c-0.509-0.083-1.039,0.157-1.299,0.637c-0.328,0.605-0.103,1.361,0.502,1.69l4.296,2.328c0.621,0.335,1.413,0.232,1.925-0.301
			l0.209-0.218l0.081-0.084l-0.332-3.029L33.842,20.057z"/>
	</g>
	<circle fill="#94598F" cx="37.064" cy="11.561" r="3.59"/>
	<path fill="#94598F" d="M41.124,28.292l3.04-4.475c0.451-0.664,0.375-1.575-0.221-2.153l-0.2-0.193l-4.021-3.896
		c-0.011-0.011-0.024-0.018-0.036-0.028c-0.668-0.757-1.69-1.176-2.765-1.023c-1.246,0.177-2.208,1.072-2.54,2.206
		c-0.121,0.412-0.164,0.853-0.1,1.306l0.58,4.089l0.081,0.571l-1.188,9.18l-1.652,10.289c-0.179,1.113,0.578,2.16,1.691,2.339
		c0.109,0.018,0.219,0.026,0.326,0.026c0.984,0,1.851-0.715,2.012-1.718l1.353-8.421l2.111,8.585
		c0.229,0.931,1.063,1.554,1.98,1.554c0.161,0,0.325-0.02,0.489-0.06c1.094-0.27,1.764-1.374,1.494-2.469l-3.737-15.2
		C40.306,28.91,40.828,28.728,41.124,28.292z M39.855,24.113l-0.693,2.273l-0.257,0.844c-0.102,0.335-0.043,0.691,0.132,0.989
		c0.09,0.153,0.202,0.296,0.358,0.402c0.133,0.09,0.277,0.145,0.425,0.179c-0.312,0.071-0.65,0.024-0.942-0.16
		c-0.045-0.029-0.077-0.07-0.117-0.104c-0.062-0.052-0.129-0.099-0.179-0.159c-0.252-0.309-0.343-0.723-0.242-1.107l0.385-1.456
		l0.371-1.401l0.371-1.403l0.479,0.464L39.855,24.113z"/>
	<path fill="#94598F" d="M18.832,23.169c-5.695,0-10.328,4.634-10.328,10.329c0,5.694,4.633,10.328,10.328,10.328
		c5.695,0,10.328-4.634,10.328-10.328C29.16,27.803,24.527,23.169,18.832,23.169z M23.736,37.627
		c-0.249,0.505-0.578,0.919-0.984,1.24c-0.408,0.322-0.873,0.565-1.395,0.729c-0.523,0.164-1.064,0.265-1.623,0.301v2.206h-1.459
		v-2.242c-0.839-0.073-1.671-0.237-2.498-0.492s-1.568-0.577-2.225-0.967l1.532-3.118c0.328,0.207,0.681,0.401,1.058,0.584
		c0.316,0.157,0.684,0.313,1.103,0.465c0.42,0.152,0.848,0.259,1.286,0.318v-1.604c-0.376-0.098-0.754-0.213-1.13-0.347
		c-0.572-0.194-1.064-0.404-1.477-0.629c-0.414-0.225-0.754-0.48-1.021-0.767c-0.268-0.285-0.465-0.61-0.593-0.976
		c-0.127-0.364-0.191-0.783-0.191-1.258c0-0.656,0.109-1.236,0.328-1.741c0.219-0.504,0.517-0.938,0.894-1.303
		c0.376-0.366,0.817-0.657,1.322-0.876c0.504-0.22,1.042-0.358,1.613-0.419v-1.842h1.459v1.859c0.401,0.049,0.79,0.122,1.167,0.219
		c0.376,0.098,0.738,0.21,1.084,0.338c0.347,0.127,0.672,0.261,0.976,0.4c0.304,0.14,0.584,0.271,0.839,0.393l-1.532,2.936
		c-0.268-0.171-0.559-0.328-0.875-0.475c-0.268-0.133-0.569-0.258-0.903-0.373c-0.334-0.116-0.671-0.204-1.012-0.265v1.642
		c0.109,0.024,0.225,0.057,0.346,0.1c0.122,0.043,0.249,0.082,0.383,0.118c0.596,0.183,1.134,0.384,1.614,0.603
		c0.48,0.219,0.891,0.478,1.231,0.774c0.34,0.298,0.602,0.66,0.784,1.085c0.182,0.426,0.273,0.942,0.273,1.55
		C24.11,36.513,23.985,37.123,23.736,37.627z"/>
	<path fill="#94598F" d="M17.801,30.489c0,0.182,0.061,0.331,0.182,0.446c0.122,0.115,0.304,0.222,0.547,0.319v-1.386
		C18.044,29.93,17.801,30.137,17.801,30.489z"/>
	<path fill="#94598F" d="M19.479,35.357v1.35c0.292-0.024,0.498-0.085,0.62-0.183c0.121-0.097,0.182-0.225,0.182-0.383
		c0-0.17-0.073-0.319-0.219-0.447C19.917,35.567,19.722,35.455,19.479,35.357z"/>
	<path fill="#94598F" d="M18.832,20.588c-7.13,0-12.91,5.779-12.91,12.91c0,7.13,5.78,12.91,12.91,12.91s12.91-5.78,12.91-12.91
		C31.742,26.367,25.961,20.588,18.832,20.588z M18.832,45.302c-6.508,0-11.804-5.296-11.804-11.804
		c0-6.509,5.295-11.804,11.804-11.804c6.509,0,11.804,5.295,11.804,11.804C30.635,40.006,25.34,45.302,18.832,45.302z"/>
</g>
<g>
	<g>
		<path fill="#FFFFFF" d="M40.418,24.273c0.167-0.38,0.317-0.766,0.437-1.16c0.021-0.21,0.056-0.419,0.067-0.63
			c-0.125-0.109-0.257-0.211-0.389-0.313C40.452,22.859,40.436,23.566,40.418,24.273z"/>
		<path fill="#FFFFFF" d="M34.842,19.057c0.004-0.262-0.008-0.556,0.027-0.793l-1.832,1.91l-3.408-0.562
			c-0.509-0.083-1.039,0.157-1.299,0.637c-0.328,0.605-0.103,1.361,0.502,1.69l4.296,2.328c0.621,0.335,1.413,0.232,1.925-0.301
			l0.209-0.218l0.081-0.084l-0.332-3.029L34.842,19.057z"/>
	</g>
	<circle fill="#FFFFFF" cx="38.064" cy="10.561" r="3.59"/>
	<path fill="#FFFFFF" d="M42.124,27.292l3.04-4.475c0.451-0.664,0.375-1.575-0.221-2.153l-0.2-0.193l-4.021-3.896
		c-0.011-0.011-0.024-0.018-0.036-0.028c-0.668-0.757-1.69-1.176-2.765-1.023c-1.246,0.177-2.208,1.072-2.54,2.206
		c-0.121,0.412-0.164,0.853-0.1,1.306l0.58,4.089l0.081,0.571l-1.188,9.18l-1.652,10.289c-0.179,1.113,0.578,2.16,1.691,2.339
		c0.109,0.018,0.219,0.026,0.326,0.026c0.984,0,1.851-0.715,2.012-1.718l1.353-8.421l2.111,8.585
		c0.229,0.931,1.063,1.554,1.98,1.554c0.161,0,0.325-0.02,0.489-0.06c1.094-0.27,1.764-1.374,1.494-2.469l-3.737-15.2
		C41.306,27.91,41.828,27.728,42.124,27.292z M40.855,23.113l-0.693,2.273l-0.257,0.844c-0.102,0.335-0.043,0.691,0.132,0.989
		c0.09,0.153,0.202,0.296,0.358,0.402c0.133,0.09,0.277,0.145,0.425,0.179c-0.312,0.071-0.65,0.024-0.942-0.16
		c-0.045-0.029-0.077-0.07-0.117-0.104c-0.062-0.052-0.129-0.099-0.179-0.159c-0.252-0.309-0.343-0.723-0.242-1.107l0.385-1.456
		l0.371-1.401l0.371-1.403l0.479,0.464L40.855,23.113z"/>
	<path fill="#FFFFFF" d="M19.832,22.169c-5.695,0-10.328,4.634-10.328,10.329c0,5.694,4.633,10.328,10.328,10.328
		c5.695,0,10.328-4.634,10.328-10.328C30.16,26.803,25.527,22.169,19.832,22.169z M24.736,36.627
		c-0.249,0.505-0.578,0.919-0.984,1.24c-0.408,0.322-0.873,0.565-1.395,0.729c-0.523,0.164-1.064,0.265-1.623,0.301v2.206h-1.459
		v-2.242c-0.839-0.073-1.671-0.237-2.498-0.492s-1.568-0.577-2.225-0.967l1.532-3.118c0.328,0.207,0.681,0.401,1.058,0.584
		c0.316,0.157,0.684,0.313,1.103,0.465c0.42,0.152,0.848,0.259,1.286,0.318v-1.604c-0.376-0.098-0.754-0.213-1.13-0.347
		c-0.572-0.194-1.064-0.404-1.477-0.629c-0.414-0.225-0.754-0.48-1.021-0.767c-0.268-0.285-0.465-0.61-0.593-0.976
		c-0.127-0.364-0.191-0.783-0.191-1.258c0-0.656,0.109-1.236,0.328-1.741c0.219-0.504,0.517-0.938,0.894-1.303
		c0.376-0.366,0.817-0.657,1.322-0.876c0.504-0.22,1.042-0.358,1.613-0.419v-1.842h1.459v1.859c0.401,0.049,0.79,0.122,1.167,0.219
		c0.376,0.098,0.738,0.21,1.084,0.338c0.347,0.127,0.672,0.261,0.976,0.4c0.304,0.14,0.584,0.271,0.839,0.393l-1.532,2.936
		c-0.268-0.171-0.559-0.328-0.875-0.475c-0.268-0.133-0.569-0.258-0.903-0.373c-0.334-0.116-0.671-0.204-1.012-0.265v1.642
		c0.109,0.024,0.225,0.057,0.346,0.1c0.122,0.043,0.249,0.082,0.383,0.118c0.596,0.183,1.134,0.384,1.614,0.603
		c0.48,0.219,0.891,0.478,1.231,0.774c0.34,0.298,0.602,0.66,0.784,1.085c0.182,0.426,0.273,0.942,0.273,1.55
		C25.11,35.513,24.985,36.123,24.736,36.627z"/>
	<path fill="#FFFFFF" d="M18.801,29.489c0,0.182,0.061,0.331,0.182,0.446c0.122,0.115,0.304,0.222,0.547,0.319v-1.386
		C19.044,28.93,18.801,29.137,18.801,29.489z"/>
	<path fill="#FFFFFF" d="M20.479,34.357v1.35c0.292-0.024,0.498-0.085,0.62-0.183c0.121-0.097,0.182-0.225,0.182-0.383
		c0-0.17-0.073-0.319-0.219-0.447C20.917,34.567,20.722,34.455,20.479,34.357z"/>
	<path fill="#FFFFFF" d="M19.832,19.588c-7.13,0-12.91,5.779-12.91,12.91c0,7.13,5.78,12.91,12.91,12.91s12.91-5.78,12.91-12.91
		C32.742,25.367,26.961,19.588,19.832,19.588z M19.832,44.302c-6.508,0-11.804-5.296-11.804-11.804
		c0-6.509,5.295-11.804,11.804-11.804c6.509,0,11.804,5.295,11.804,11.804C31.635,39.006,26.34,44.302,19.832,44.302z"/>
</g>
</svg>
