<?xml version="1.0" encoding="iso-8859-1"?>
<!-- Generator: Adobe Illustrator 19.0.0, SVG Export Plug-In . SVG Version: 6.00 Build 0)  -->
<svg version="1.1" id="Layer_1" xmlns="http://www.w3.org/2000/svg" xmlns:xlink="http://www.w3.org/1999/xlink" x="0px" y="0px"
	 viewBox="0 0 460.004 460.004" style="enable-background:new 0 0 460.004 460.004;" xml:space="preserve">
<g id="XMLID_1280_">
	<polygon id="XMLID_1281_" style="fill:#BEC8D6;" points="355.002,0.004 355.002,370.004 265.002,460.004 177.502,460.004 
		147.502,230.004 177.502,0.004 	"/>
	<polygon id="XMLID_1282_" style="fill:#DAE0E7;" points="177.502,0.004 0.002,0.004 0.002,460.004 177.502,460.004 
		177.502,400.004 167.502,385.004 177.502,370.004 177.502,300.004 167.502,285.004 177.502,270.004 	"/>
	<polygon id="XMLID_1283_" style="fill:#A3B1C4;" points="355.002,460.004 355.002,370.004 288.335,400.002 265.002,460.004 	"/>
	<polygon id="XMLID_1284_" style="fill:#BEC8D6;" points="460.002,400.004 422.502,460.004 402.502,390.004 	"/>
	<polygon id="XMLID_1285_" style="fill:#DAE0E7;" points="422.502,390.004 422.502,460.004 385.002,400.004 	"/>
	<polygon id="XMLID_1286_" style="fill:#233145;" points="460.002,130 460.002,400.004 422.502,400.004 402.502,120 	"/>
	<polygon id="XMLID_1287_" style="fill:#BEC8D6;" points="437.496,0 407.507,0 407.501,60 437.501,60 	"/>
	<polygon id="XMLID_1288_" style="fill:#466289;" points="460.002,50 460.002,100 402.502,110 422.502,50 	"/>
	<polygon id="XMLID_1289_" style="fill:#466289;" points="422.502,120 422.502,400.004 385.002,400.004 385.002,130 	"/>
	<polygon id="XMLID_1290_" style="fill:#6B81A1;" points="422.502,50 422.502,110 385.002,100 385.002,50 	"/>
	<polygon id="XMLID_1291_" style="fill:#BEC8D6;" points="460.001,130 422.501,130 412.501,115 422.501,100 460.001,100 	"/>
	<polygon id="XMLID_1292_" style="fill:#DAE0E7;" points="422.501,100 355.013,100 355.007,240.004 385.002,240.004 385.002,130 
		422.501,130 	"/>
	<polygon id="XMLID_1293_" style="fill:#466289;" points="325.002,210.004 325.002,240.004 177.502,240.004 167.502,225.004 
		177.502,210.004 	"/>
	<polygon id="XMLID_1294_" style="fill:#466289;" points="325.002,150.004 325.002,180.004 177.502,180.004 167.502,165.004 
		177.502,150.004 	"/>
	<polygon id="XMLID_1295_" style="fill:#466289;" points="325.002,90.004 325.002,120.004 177.502,120.004 167.502,105.004 
		177.502,90.004 	"/>
	<polygon id="XMLID_1296_" style="fill:#466289;" points="325.002,30.004 325.002,60.004 177.502,60.004 167.502,45.004 
		177.502,30.004 	"/>
	<rect id="XMLID_1297_" x="30.002" y="270.004" style="fill:#A3B1C4;" width="147.5" height="30"/>
	<rect id="XMLID_1298_" x="30.002" y="210.004" style="fill:#A3B1C4;" width="147.5" height="30"/>
	<rect id="XMLID_1299_" x="30.002" y="150.004" style="fill:#A3B1C4;" width="147.5" height="30"/>
	<rect id="XMLID_1300_" x="30.002" y="90.004" style="fill:#A3B1C4;" width="147.5" height="30"/>
	<rect id="XMLID_1301_" x="30.002" y="30.004" style="fill:#A3B1C4;" width="147.5" height="30"/>
	<rect id="XMLID_1302_" x="30.002" y="370.004" style="fill:#A3B1C4;" width="147.5" height="30"/>
	<polygon id="XMLID_1303_" style="fill:#DAE0E7;" points="265.002,370.004 265.002,460.004 355.002,370.004 	"/>
</g>
<g>
</g>
<g>
</g>
<g>
</g>
<g>
</g>
<g>
</g>
<g>
</g>
<g>
</g>
<g>
</g>
<g>
</g>
<g>
</g>
<g>
</g>
<g>
</g>
<g>
</g>
<g>
</g>
<g>
</g>
</svg>
